<?xml version="1.0" encoding="UTF-8" standalone="no"?>
<svg
   version="1.1"
   width="24"
   height="24"
   viewBox="0 0 24 24"
   id="svg850"
   sodipodi:docname="clipboard-list.svg"
   inkscape:version="1.1.1 (3bf5ae0d25, 2021-09-20)"
   xmlns:inkscape="http://www.inkscape.org/namespaces/inkscape"
   xmlns:sodipodi="http://sodipodi.sourceforge.net/DTD/sodipodi-0.dtd"
   xmlns="http://www.w3.org/2000/svg"
   xmlns:svg="http://www.w3.org/2000/svg">
  <defs
     id="defs854" />
  <sodipodi:namedview
     id="namedview852"
     pagecolor="#ffffff"
     bordercolor="#666666"
     borderopacity="1.0"
     inkscape:pageshadow="2"
     inkscape:pageopacity="0.0"
     inkscape:pagecheckerboard="0"
     showgrid="false"
     inkscape:zoom="33.5"
     inkscape:cx="11.985075"
     inkscape:cy="14.38806"
     inkscape:window-width="1920"
     inkscape:window-height="1019"
     inkscape:window-x="0"
     inkscape:window-y="30"
     inkscape:window-maximized="1"
     inkscape:current-layer="svg850" />
  <path
     d="M19 3H14.82C14.4 1.84 13.3 1 12 1S9.6 1.84 9.18 3H5C3.9 3 3 3.9 3 5V19C3 20.1 3.9 21 5 21H19C20.1 21 21 20.1 21 19V5C21 3.9 20.1 3 19 3M7 8H9V12H8V9H7V8M10 17V18H7V17.08L9 15H7V14H9.25C9.66 14 10 14.34 10 14.75C10 14.95 9.92 15.14 9.79 15.27L8.12 17H10M11 4C11 3.45 11.45 3 12 3S13 3.45 13 4 12.55 5 12 5 11 4.55 11 4M17 17H12V15H17V17M17 11H12V9H17V11Z"
     id="path848"
     style="fill:#283593;fill-opacity:1" />
</svg>
